# xmcd
#
# Track frame offsets:
#        187
#        39387
#        50472
#        76092
#        94910
#        111307
#        138572
#        155567
#        181407
#        195572
#        218020
#        231245
#        258507
#        278122
#        293612
#        309995
#
# Disc length: 4361 seconds
#
# Revision: 5
# Processed by: cddbd v1.5.1PL2 Copyright (c) Steve Scherf et al.
# Submitted via: ExactAudioCopy v0.95b4
#
DISCID=df110710
DTITLE=Bill Whelan - Riverdance - Music From The Show
DYEAR=1995
DGENRE=Celtic
TTITLE0=Reel Around The Sun
TTITLE1=The Heart's Cry
TTITLE2=The Countess Cathleen/Women of the Sidhe
TTITLE3=Caoineadh Cu Chulainn (Lament)
TTITLE4=Shivna
TTITLE5=Firedance
TTITLE6=Slip Into Spring
TTITLE7=Riverdance
TTITLE8=American Wake (The Nova Scotia Set)
TTITLE9=Lift The Wings
TTITLE10=Macedonian Morning
TTITLE11=Marta's Dance/The Russian Dervish
TTITLE12=Andalucia
TTITLE13=Home And The Heartland
TTITLE14=The Harvest
TTITLE15=Riverdance Remix
EXTD=
EXTT0=
EXTT1=
EXTT2=
EXTT3=
EXTT4=
EXTT5=
EXTT6=
EXTT7=
EXTT8=
EXTT9=
EXTT10=
EXTT11=
EXTT12=
EXTT13=
EXTT14=
EXTT15=
PLAYORDER=
